<?xml version="1.0" encoding="UTF-8" standalone="no"?>
<!DOCTYPE svg PUBLIC "-//W3C//DTD SVG 1.1//EN" "http://www.w3.org/Graphics/SVG/1.1/DTD/svg11.dtd">
<svg width="100%" height="100%" viewBox="0 0 512 512" version="1.1" xmlns="http://www.w3.org/2000/svg" xmlns:xlink="http://www.w3.org/1999/xlink" xml:space="preserve" xmlns:serif="http://www.serif.com/" style="fill-rule:evenodd;clip-rule:evenodd;stroke-linejoin:round;stroke-miterlimit:2;">
    <g transform="matrix(1,0,0,1,-1687.5,0)">
        <g transform="matrix(1,0,0,1,1687.5,0)">
            <rect id="Square" x="0" y="0" width="512" height="512" style="fill:none;"/>
            <g id="Square1" serif:id="Square">
                <g transform="matrix(1,0,0,1,383.276,383.222)">
                    <g id="Icon">
                        <path d="M0,-254.444L-66.065,-224.496L-127.276,-254.444L-254.553,-254.444L-254.553,0L-188.739,-29.947L-127.276,0L0,0L0,-254.444ZM-143.223,-185.565L-96.336,-162.625L-68.879,-149.192L-68.879,-68.879L-111.389,-68.879L-158.568,-91.867L-185.674,-105.074L-185.674,-185.565L-143.223,-185.565Z" style="fill:#ffffff;fill-rule:nonzero;"/>
                    </g>
                </g>
            </g>
        </g>
    </g>
</svg>
