<?xml version="1.0" encoding="utf-8"?>
<!-- Generator: Adobe Illustrator 27.5.0, SVG Export Plug-In . SVG Version: 6.00 Build 0)  -->
<svg version="1.1" xmlns="http://www.w3.org/2000/svg" xmlns:xlink="http://www.w3.org/1999/xlink" x="0px" y="0px"
	 viewBox="0 0 2746 448" style="enable-background:new 0 0 2746 448;" xml:space="preserve">
<style type="text/css">
	.st0{fill:#FFFFFF;}
</style>
<g id="Layer_1">
	<g>
		<g>
			<path class="st0" d="M2239.3999,0.32007l-32.81982,155.61987L2173.76001,0.32007h-98.43994v447.35986h97.30005l-1.56006-73.26001
				h71.04004l-1.56006,73.26001h97.30005V0.32007H2239.3999z M2316.46997,426.31006h-54.09985L2268,161.44995l-40.57007,191.6001
				h-41.69995l-40.58008-191.6001l5.64014,264.86011h-54.1001V21.68994h59.72998L2206.58008,259.5l50.1499-237.81006h59.73999
				V426.31006z"/>
			<path class="st0" d="M2648.77002,0.32007h-115.47998v447.35986h126.76001c54.76001,0,86.16992-29.1499,86.16992-79.97998
				V99.45996C2746.21997,35.53003,2711.60986,0.32007,2648.77002,0.32007z M2724.8501,367.69995
				c0,39.08008-21.61011,58.61011-64.80005,58.61011h-105.38013V21.68994h94.1001c50.71997,0,76.08008,25.93005,76.08008,77.77002
				V367.69995z M2646.52002,70.71997h-37.76001v306.56006h40.58008c14.26978,0,21.40991-6.01001,21.40991-18.03003V100.02002
				C2670.75,80.48999,2662.66992,70.71997,2646.52002,70.71997z M2649.37988,355.90991c-0.00977,0-19.23975,0-19.23975,0V92.08997
				h16.37988c0.87012,0,1.48999,0.05994,1.90991,0.13c0.36011,1.02002,0.94995,3.35999,0.94995,7.80005V355.90991z"/>
			<path class="st0" d="M2447.95996,70.71997h-25.3501c-15.77979,0-23.66992,7.89001-23.66992,23.67004v259.21997
				c0,15.78003,8.07007,23.67004,24.22998,23.67004h27.61011c14.27002,0,21.41992-7.89001,21.41992-23.67004V94.39001
				C2472.19995,78.60999,2464.10986,70.71997,2447.95996,70.71997z M2450.82007,353.60999c0,0.93005-0.03003,1.69006-0.1001,2.29993
				h-27.55005c-1.20996,0-2.10986-0.07996-2.75-0.16992c-0.06006-0.53003-0.10986-1.22998-0.10986-2.13V94.39001
				c0-0.92004,0.0498-1.64001,0.10986-2.19006c0.55005-0.05994,1.27002-0.10999,2.18994-0.10999h25.3501
				c1.20996,0,2.11011,0.07996,2.76001,0.17004c0.06006,0.53003,0.1001,1.22998,0.1001,2.13V353.60999z M2447.95996,70.71997
				h-25.3501c-15.77979,0-23.66992,7.89001-23.66992,23.67004v259.21997c0,15.78003,8.07007,23.67004,24.22998,23.67004h27.61011
				c14.27002,0,21.41992-7.89001,21.41992-23.67004V94.39001C2472.19995,78.60999,2464.10986,70.71997,2447.95996,70.71997z
				 M2450.82007,353.60999c0,0.93005-0.03003,1.69006-0.1001,2.29993h-27.55005c-1.20996,0-2.10986-0.07996-2.75-0.16992
				c-0.06006-0.53003-0.10986-1.22998-0.10986-2.13V94.39001c0-0.92004,0.0498-1.64001,0.10986-2.19006
				c0.55005-0.05994,1.27002-0.10999,2.18994-0.10999h25.3501c1.20996,0,2.11011,0.07996,2.76001,0.17004
				c0.06006,0.53003,0.1001,1.22998,0.1001,2.13V353.60999z M2533.29004,34.48999
				C2519.03003,12.32996,2494.5,0.32007,2461.48999,0.32007h-51.84009c-33.02002,0-57.54004,12.00989-71.80981,34.17993
				c-9.42017,14.60999-14.37012,33.62-14.37012,56.51001v266.55005c0,22.66992,4.94995,41.51001,14.37012,56.01001
				c14.33984,22.11987,39.05981,34.10986,72.36987,34.10986h50.71997c33.29004,0,58.01001-11.97998,72.36011-34.08997
				c9.41992-14.5,14.37988-33.33997,14.37988-56.02991V91.01001C2547.66992,68.12,2542.70996,49.09998,2533.29004,34.48999z
				 M2526.29004,357.56006c0,45.82996-21.79004,68.75-65.36011,68.75h-50.71997c-43.58984,0-65.36987-22.92004-65.36987-68.75
				V91.01001c0-46.20996,21.59985-69.32007,64.80981-69.32007h51.84009c43.18994,0,64.80005,23.11011,64.80005,69.32007V357.56006z
				 M2447.95996,70.71997h-25.3501c-15.77979,0-23.66992,7.89001-23.66992,23.67004v259.21997
				c0,15.78003,8.07007,23.67004,24.22998,23.67004h27.61011c14.27002,0,21.41992-7.89001,21.41992-23.67004V94.39001
				C2472.19995,78.60999,2464.10986,70.71997,2447.95996,70.71997z M2450.82007,353.60999c0,0.93005-0.03003,1.69006-0.1001,2.29993
				h-27.55005c-1.20996,0-2.10986-0.07996-2.75-0.16992c-0.06006-0.53003-0.10986-1.22998-0.10986-2.13V94.39001
				c0-0.92004,0.0498-1.64001,0.10986-2.19006c0.55005-0.05994,1.27002-0.10999,2.18994-0.10999h25.3501
				c1.20996,0,2.11011,0.07996,2.76001,0.17004c0.06006,0.53003,0.1001,1.22998,0.1001,2.13V353.60999z"/>
		</g>
	</g>
</g>
<g id="Layer_2">
	<g>
		<g>
			<g>
				<g>
					<g>
						<path class="st0" d="M1919.38,214.31006l-92.27002-92.27002c-5.35999-5.22998-13.94006-5.19006-19.25,0.11987
							l-5.42004,5.43005L1715.87,214.1499l-0.16003,0.16016c-5.34998,5.34985-5.34998,14.02991,0,19.36987l92.15002,92.15002
							c5.34998,5.34998,14.03003,5.34998,19.38,0l92.14001-92.15002C1924.72998,228.33997,1924.72998,219.65991,1919.38,214.31006z
							 M1817.55005,305.30005L1736.25,224l81.30005-81.30005l71.60986,71.61011c5.3501,5.34985,5.3501,14.02991,0,19.37988
							L1817.55005,305.30005z"/>
					</g>
				</g>
				<g>
					<g>
						<path class="st0" d="M2088.17993,214.31006l-12.85986-12.86011l-197.12012-197.12
							c-2.56995-2.56995-6.04993-4.00989-9.68994-4.00989h-160.27002c-12.19995,0-18.31006,14.75989-9.67993,23.38989
							l103.87988,103.88l15.11011,15.10999l71.60986,71.61011c5.3501,5.34985,5.3501,14.02991,0,19.37988l-190.59985,190.6001
							c-8.63013,8.62988-2.52002,23.38989,9.67993,23.38989h160.27002c3.64001,0,7.12-1.44995,9.68994-4.02002l197.12012-197.10986
							l12.85986-12.86011C2093.53003,228.33997,2093.53003,219.65991,2088.17993,214.31006z M1865.34009,426.30005h-138.57007
							l100.46997-100.47009L1929.07007,224l-101.96008-101.95996l-100.33997-100.3501h138.57007L2067.64014,224
							L1865.34009,426.30005z"/>
					</g>
				</g>
			</g>
		</g>
	</g>
</g>
<g id="Layer_3">
	<g>
		<path class="st0" d="M163.84998,0.32007l-32.81995,155.61987L98.21997,0.32007H-0.21997v447.35986h97.29999l-1.56-73.26001
			h71.02997l-1.56,73.26001h97.29999V0.32007H163.84998z M240.91998,426.31006h-54.09998l5.64001-264.86011L151.88,353.05005
			h-41.70001l-40.57001-191.6001L75.25,426.31006H21.15002V21.68994H80.88L131.03003,259.5L181.19,21.68994h59.72998V426.31006z"/>
		<path class="st0" d="M1617.42993,0.32007l-32.81995,155.61987L1551.79004,0.32007h-98.44006v447.35986h97.30005l-1.55994-73.26001
			H1620.13l-1.55994,73.26001H1715.87V0.32007H1617.42993z M1694.48999,426.31006h-54.08997l5.63-264.86011l-40.57007,191.6001
			h-41.69995l-40.58008-191.6001l5.64014,264.86011h-54.1001V21.68994h59.72998L1584.60999,259.5l50.15002-237.81006h59.72998
			V426.31006z"/>
		<path class="st0" d="M372.41998,70.71997H347.06c-15.77997,0-23.66998,7.89001-23.66998,23.67004v259.21997
			c0,15.78003,8.07996,23.67004,24.22998,23.67004h27.62c14.27002,0,21.41003-7.89001,21.41003-23.67004V94.39001
			C396.65002,78.60999,388.57001,70.71997,372.41998,70.71997z M375.28003,353.60999c0,0.93005-0.04004,1.69006-0.10004,2.29993
			h-27.56c-1.20001,0-2.09998-0.07996-2.73999-0.16992c-0.07001-0.53003-0.12-1.22998-0.12-2.13V94.39001
			c0-0.92004,0.04999-1.64001,0.12-2.19006c0.54999-0.05994,1.26001-0.10999,2.17999-0.10999h25.35999
			c1.20001,0,2.10004,0.07996,2.75,0.17004c0.06,0.53003,0.11005,1.22998,0.11005,2.13V353.60999z M372.41998,70.71997H347.06
			c-15.77997,0-23.66998,7.89001-23.66998,23.67004v259.21997c0,15.78003,8.07996,23.67004,24.22998,23.67004h27.62
			c14.27002,0,21.41003-7.89001,21.41003-23.67004V94.39001C396.65002,78.60999,388.57001,70.71997,372.41998,70.71997z
			 M375.28003,353.60999c0,0.93005-0.04004,1.69006-0.10004,2.29993h-27.56c-1.20001,0-2.09998-0.07996-2.73999-0.16992
			c-0.07001-0.53003-0.12-1.22998-0.12-2.13V94.39001c0-0.92004,0.04999-1.64001,0.12-2.19006
			c0.54999-0.05994,1.26001-0.10999,2.17999-0.10999h25.35999c1.20001,0,2.10004,0.07996,2.75,0.17004
			c0.06,0.53003,0.11005,1.22998,0.11005,2.13V353.60999z M372.41998,70.71997H347.06
			c-15.77997,0-23.66998,7.89001-23.66998,23.67004v259.21997c0,15.78003,8.07996,23.67004,24.22998,23.67004h27.62
			c14.27002,0,21.41003-7.89001,21.41003-23.67004V94.39001C396.65002,78.60999,388.57001,70.71997,372.41998,70.71997z
			 M375.28003,353.60999c0,0.93005-0.04004,1.69006-0.10004,2.29993h-27.56c-1.20001,0-2.09998-0.07996-2.73999-0.16992
			c-0.07001-0.53003-0.12-1.22998-0.12-2.13V94.39001c0-0.92004,0.04999-1.64001,0.12-2.19006
			c0.54999-0.05994,1.26001-0.10999,2.17999-0.10999h25.35999c1.20001,0,2.10004,0.07996,2.75,0.17004
			c0.06,0.53003,0.11005,1.22998,0.11005,2.13V353.60999z M372.41998,70.71997H347.06
			c-15.77997,0-23.66998,7.89001-23.66998,23.67004v259.21997c0,15.78003,8.07996,23.67004,24.22998,23.67004h27.62
			c14.27002,0,21.41003-7.89001,21.41003-23.67004V94.39001C396.65002,78.60999,388.57001,70.71997,372.41998,70.71997z
			 M375.28003,353.60999c0,0.93005-0.04004,1.69006-0.10004,2.29993h-27.56c-1.20001,0-2.09998-0.07996-2.73999-0.16992
			c-0.07001-0.53003-0.12-1.22998-0.12-2.13V94.39001c0-0.92004,0.04999-1.64001,0.12-2.19006
			c0.54999-0.05994,1.26001-0.10999,2.17999-0.10999h25.35999c1.20001,0,2.10004,0.07996,2.75,0.17004
			c0.06,0.53003,0.11005,1.22998,0.11005,2.13V353.60999z M372.41998,70.71997H347.06
			c-15.77997,0-23.66998,7.89001-23.66998,23.67004v259.21997c0,15.78003,8.07996,23.67004,24.22998,23.67004h27.62
			c14.27002,0,21.41003-7.89001,21.41003-23.67004V94.39001C396.65002,78.60999,388.57001,70.71997,372.41998,70.71997z
			 M375.28003,353.60999c0,0.93005-0.04004,1.69006-0.10004,2.29993h-27.56c-1.20001,0-2.09998-0.07996-2.73999-0.16992
			c-0.07001-0.53003-0.12-1.22998-0.12-2.13V94.39001c0-0.92004,0.04999-1.64001,0.12-2.19006
			c0.54999-0.05994,1.26001-0.10999,2.17999-0.10999h25.35999c1.20001,0,2.10004,0.07996,2.75,0.17004
			c0.06,0.53003,0.11005,1.22998,0.11005,2.13V353.60999z M372.41998,70.71997H347.06
			c-15.77997,0-23.66998,7.89001-23.66998,23.67004v259.21997c0,15.78003,8.07996,23.67004,24.22998,23.67004h27.62
			c14.27002,0,21.41003-7.89001,21.41003-23.67004V94.39001C396.65002,78.60999,388.57001,70.71997,372.41998,70.71997z
			 M375.28003,353.60999c0,0.93005-0.04004,1.69006-0.10004,2.29993h-27.56c-1.20001,0-2.09998-0.07996-2.73999-0.16992
			c-0.07001-0.53003-0.12-1.22998-0.12-2.13V94.39001c0-0.92004,0.04999-1.64001,0.12-2.19006
			c0.54999-0.05994,1.26001-0.10999,2.17999-0.10999h25.35999c1.20001,0,2.10004,0.07996,2.75,0.17004
			c0.06,0.53003,0.11005,1.22998,0.11005,2.13V353.60999z M372.41998,70.71997H347.06
			c-15.77997,0-23.66998,7.89001-23.66998,23.67004v259.21997c0,15.78003,8.07996,23.67004,24.22998,23.67004h27.62
			c14.27002,0,21.41003-7.89001,21.41003-23.67004V94.39001C396.65002,78.60999,388.57001,70.71997,372.41998,70.71997z
			 M375.28003,353.60999c0,0.93005-0.04004,1.69006-0.10004,2.29993h-27.56c-1.20001,0-2.09998-0.07996-2.73999-0.16992
			c-0.07001-0.53003-0.12-1.22998-0.12-2.13V94.39001c0-0.92004,0.04999-1.64001,0.12-2.19006
			c0.54999-0.05994,1.26001-0.10999,2.17999-0.10999h25.35999c1.20001,0,2.10004,0.07996,2.75,0.17004
			c0.06,0.53003,0.11005,1.22998,0.11005,2.13V353.60999z M372.41998,70.71997H347.06
			c-15.77997,0-23.66998,7.89001-23.66998,23.67004v259.21997c0,15.78003,8.07996,23.67004,24.22998,23.67004h27.62
			c14.27002,0,21.41003-7.89001,21.41003-23.67004V94.39001C396.65002,78.60999,388.57001,70.71997,372.41998,70.71997z
			 M375.28003,353.60999c0,0.93005-0.04004,1.69006-0.10004,2.29993h-27.56c-1.20001,0-2.09998-0.07996-2.73999-0.16992
			c-0.07001-0.53003-0.12-1.22998-0.12-2.13V94.39001c0-0.92004,0.04999-1.64001,0.12-2.19006
			c0.54999-0.05994,1.26001-0.10999,2.17999-0.10999h25.35999c1.20001,0,2.10004,0.07996,2.75,0.17004
			c0.06,0.53003,0.11005,1.22998,0.11005,2.13V353.60999z M372.41998,70.71997H347.06
			c-15.77997,0-23.66998,7.89001-23.66998,23.67004v259.21997c0,15.78003,8.07996,23.67004,24.22998,23.67004h27.62
			c14.27002,0,21.41003-7.89001,21.41003-23.67004V94.39001C396.65002,78.60999,388.57001,70.71997,372.41998,70.71997z
			 M375.28003,353.60999c0,0.93005-0.04004,1.69006-0.10004,2.29993h-27.56c-1.20001,0-2.09998-0.07996-2.73999-0.16992
			c-0.07001-0.53003-0.12-1.22998-0.12-2.13V94.39001c0-0.92004,0.04999-1.64001,0.12-2.19006
			c0.54999-0.05994,1.26001-0.10999,2.17999-0.10999h25.35999c1.20001,0,2.10004,0.07996,2.75,0.17004
			c0.06,0.53003,0.11005,1.22998,0.11005,2.13V353.60999z M372.41998,70.71997H347.06
			c-15.77997,0-23.66998,7.89001-23.66998,23.67004v259.21997c0,15.78003,8.07996,23.67004,24.22998,23.67004h27.62
			c14.27002,0,21.41003-7.89001,21.41003-23.67004V94.39001C396.65002,78.60999,388.57001,70.71997,372.41998,70.71997z
			 M375.28003,353.60999c0,0.93005-0.04004,1.69006-0.10004,2.29993h-27.56c-1.20001,0-2.09998-0.07996-2.73999-0.16992
			c-0.07001-0.53003-0.12-1.22998-0.12-2.13V94.39001c0-0.92004,0.04999-1.64001,0.12-2.19006
			c0.54999-0.05994,1.26001-0.10999,2.17999-0.10999h25.35999c1.20001,0,2.10004,0.07996,2.75,0.17004
			c0.06,0.53003,0.11005,1.22998,0.11005,2.13V353.60999z M372.41998,70.71997H347.06
			c-15.77997,0-23.66998,7.89001-23.66998,23.67004v259.21997c0,15.78003,8.07996,23.67004,24.22998,23.67004h27.62
			c14.27002,0,21.41003-7.89001,21.41003-23.67004V94.39001C396.65002,78.60999,388.57001,70.71997,372.41998,70.71997z
			 M375.28003,353.60999c0,0.93005-0.04004,1.69006-0.10004,2.29993h-27.56c-1.20001,0-2.09998-0.07996-2.73999-0.16992
			c-0.07001-0.53003-0.12-1.22998-0.12-2.13V94.39001c0-0.92004,0.04999-1.64001,0.12-2.19006
			c0.54999-0.05994,1.26001-0.10999,2.17999-0.10999h25.35999c1.20001,0,2.10004,0.07996,2.75,0.17004
			c0.06,0.53003,0.11005,1.22998,0.11005,2.13V353.60999z M372.41998,70.71997H347.06
			c-15.77997,0-23.66998,7.89001-23.66998,23.67004v259.21997c0,15.78003,8.07996,23.67004,24.22998,23.67004h27.62
			c14.27002,0,21.41003-7.89001,21.41003-23.67004V94.39001C396.65002,78.60999,388.57001,70.71997,372.41998,70.71997z
			 M375.28003,353.60999c0,0.93005-0.04004,1.69006-0.10004,2.29993h-27.56c-1.20001,0-2.09998-0.07996-2.73999-0.16992
			c-0.07001-0.53003-0.12-1.22998-0.12-2.13V94.39001c0-0.92004,0.04999-1.64001,0.12-2.19006
			c0.54999-0.05994,1.26001-0.10999,2.17999-0.10999h25.35999c1.20001,0,2.10004,0.07996,2.75,0.17004
			c0.06,0.53003,0.11005,1.22998,0.11005,2.13V353.60999z M457.75,34.5c-14.27002-22.17004-38.78998-34.17993-71.81-34.17993
			h-51.84003c-33.01996,0-57.53998,12.00989-71.81,34.17993c-9.41998,14.60999-14.37,33.62-14.37,56.51001v266.55005
			c0,22.66992,4.95001,41.51001,14.37,56.01001c14.35004,22.11987,39.07001,34.10986,72.37,34.10986H385.38
			c33.29999,0,58.02002-11.98999,72.37-34.10986c9.41998-14.5,14.37-33.34009,14.37-56.01001V91.01001
			C472.12,68.12,467.16998,49.10999,457.75,34.5z M450.75,357.56006c0,45.82996-21.78998,68.75-65.37,68.75h-50.72003
			c-43.57996,0-65.37-22.92004-65.37-68.75V91.01001c0-46.20996,21.60004-69.32007,64.81-69.32007H385.94
			c43.20001,0,64.81,23.11011,64.81,69.32007V357.56006z M372.41998,70.71997H347.06
			c-15.77997,0-23.66998,7.89001-23.66998,23.67004v259.21997c0,15.78003,8.07996,23.67004,24.22998,23.67004h27.62
			c14.27002,0,21.41003-7.89001,21.41003-23.67004V94.39001C396.65002,78.60999,388.57001,70.71997,372.41998,70.71997z
			 M375.28003,353.60999c0,0.93005-0.04004,1.69006-0.10004,2.29993h-27.56c-1.20001,0-2.09998-0.07996-2.73999-0.16992
			c-0.07001-0.53003-0.12-1.22998-0.12-2.13V94.39001c0-0.92004,0.04999-1.64001,0.12-2.19006
			c0.54999-0.05994,1.26001-0.10999,2.17999-0.10999h25.35999c1.20001,0,2.10004,0.07996,2.75,0.17004
			c0.06,0.53003,0.11005,1.22998,0.11005,2.13V353.60999z M372.41998,70.71997H347.06
			c-15.77997,0-23.66998,7.89001-23.66998,23.67004v259.21997c0,15.78003,8.07996,23.67004,24.22998,23.67004h27.62
			c14.27002,0,21.41003-7.89001,21.41003-23.67004V94.39001C396.65002,78.60999,388.57001,70.71997,372.41998,70.71997z
			 M375.28003,353.60999c0,0.93005-0.04004,1.69006-0.10004,2.29993h-27.56c-1.20001,0-2.09998-0.07996-2.73999-0.16992
			c-0.07001-0.53003-0.12-1.22998-0.12-2.13V94.39001c0-0.92004,0.04999-1.64001,0.12-2.19006
			c0.54999-0.05994,1.26001-0.10999,2.17999-0.10999h25.35999c1.20001,0,2.10004,0.07996,2.75,0.17004
			c0.06,0.53003,0.11005,1.22998,0.11005,2.13V353.60999z M372.41998,70.71997H347.06
			c-15.77997,0-23.66998,7.89001-23.66998,23.67004v259.21997c0,15.78003,8.07996,23.67004,24.22998,23.67004h27.62
			c14.27002,0,21.41003-7.89001,21.41003-23.67004V94.39001C396.65002,78.60999,388.57001,70.71997,372.41998,70.71997z
			 M375.28003,353.60999c0,0.93005-0.04004,1.69006-0.10004,2.29993h-27.56c-1.20001,0-2.09998-0.07996-2.73999-0.16992
			c-0.07001-0.53003-0.12-1.22998-0.12-2.13V94.39001c0-0.92004,0.04999-1.64001,0.12-2.19006
			c0.54999-0.05994,1.26001-0.10999,2.17999-0.10999h25.35999c1.20001,0,2.10004,0.07996,2.75,0.17004
			c0.06,0.53003,0.11005,1.22998,0.11005,2.13V353.60999z M372.41998,70.71997H347.06
			c-15.77997,0-23.66998,7.89001-23.66998,23.67004v259.21997c0,15.78003,8.07996,23.67004,24.22998,23.67004h27.62
			c14.27002,0,21.41003-7.89001,21.41003-23.67004V94.39001C396.65002,78.60999,388.57001,70.71997,372.41998,70.71997z
			 M375.28003,353.60999c0,0.93005-0.04004,1.69006-0.10004,2.29993h-27.56c-1.20001,0-2.09998-0.07996-2.73999-0.16992
			c-0.07001-0.53003-0.12-1.22998-0.12-2.13V94.39001c0-0.92004,0.04999-1.64001,0.12-2.19006
			c0.54999-0.05994,1.26001-0.10999,2.17999-0.10999h25.35999c1.20001,0,2.10004,0.07996,2.75,0.17004
			c0.06,0.53003,0.11005,1.22998,0.11005,2.13V353.60999z M372.41998,70.71997H347.06
			c-15.77997,0-23.66998,7.89001-23.66998,23.67004v259.21997c0,15.78003,8.07996,23.67004,24.22998,23.67004h27.62
			c14.27002,0,21.41003-7.89001,21.41003-23.67004V94.39001C396.65002,78.60999,388.57001,70.71997,372.41998,70.71997z
			 M375.28003,353.60999c0,0.93005-0.04004,1.69006-0.10004,2.29993h-27.56c-1.20001,0-2.09998-0.07996-2.73999-0.16992
			c-0.07001-0.53003-0.12-1.22998-0.12-2.13V94.39001c0-0.92004,0.04999-1.64001,0.12-2.19006
			c0.54999-0.05994,1.26001-0.10999,2.17999-0.10999h25.35999c1.20001,0,2.10004,0.07996,2.75,0.17004
			c0.06,0.53003,0.11005,1.22998,0.11005,2.13V353.60999z M372.41998,70.71997H347.06
			c-15.77997,0-23.66998,7.89001-23.66998,23.67004v259.21997c0,15.78003,8.07996,23.67004,24.22998,23.67004h27.62
			c14.27002,0,21.41003-7.89001,21.41003-23.67004V94.39001C396.65002,78.60999,388.57001,70.71997,372.41998,70.71997z
			 M375.28003,353.60999c0,0.93005-0.04004,1.69006-0.10004,2.29993h-27.56c-1.20001,0-2.09998-0.07996-2.73999-0.16992
			c-0.07001-0.53003-0.12-1.22998-0.12-2.13V94.39001c0-0.92004,0.04999-1.64001,0.12-2.19006
			c0.54999-0.05994,1.26001-0.10999,2.17999-0.10999h25.35999c1.20001,0,2.10004,0.07996,2.75,0.17004
			c0.06,0.53003,0.11005,1.22998,0.11005,2.13V353.60999z M372.41998,70.71997H347.06
			c-15.77997,0-23.66998,7.89001-23.66998,23.67004v259.21997c0,15.78003,8.07996,23.67004,24.22998,23.67004h27.62
			c14.27002,0,21.41003-7.89001,21.41003-23.67004V94.39001C396.65002,78.60999,388.57001,70.71997,372.41998,70.71997z
			 M375.28003,353.60999c0,0.93005-0.04004,1.69006-0.10004,2.29993h-27.56c-1.20001,0-2.09998-0.07996-2.73999-0.16992
			c-0.07001-0.53003-0.12-1.22998-0.12-2.13V94.39001c0-0.92004,0.04999-1.64001,0.12-2.19006
			c0.54999-0.05994,1.26001-0.10999,2.17999-0.10999h25.35999c1.20001,0,2.10004,0.07996,2.75,0.17004
			c0.06,0.53003,0.11005,1.22998,0.11005,2.13V353.60999z M372.41998,70.71997H347.06
			c-15.77997,0-23.66998,7.89001-23.66998,23.67004v259.21997c0,15.78003,8.07996,23.67004,24.22998,23.67004h27.62
			c14.27002,0,21.41003-7.89001,21.41003-23.67004V94.39001C396.65002,78.60999,388.57001,70.71997,372.41998,70.71997z
			 M375.28003,353.60999c0,0.93005-0.04004,1.69006-0.10004,2.29993h-27.56c-1.20001,0-2.09998-0.07996-2.73999-0.16992
			c-0.07001-0.53003-0.12-1.22998-0.12-2.13V94.39001c0-0.92004,0.04999-1.64001,0.12-2.19006
			c0.54999-0.05994,1.26001-0.10999,2.17999-0.10999h25.35999c1.20001,0,2.10004,0.07996,2.75,0.17004
			c0.06,0.53003,0.11005,1.22998,0.11005,2.13V353.60999z M372.41998,70.71997H347.06
			c-15.77997,0-23.66998,7.89001-23.66998,23.67004v259.21997c0,15.78003,8.07996,23.67004,24.22998,23.67004h27.62
			c14.27002,0,21.41003-7.89001,21.41003-23.67004V94.39001C396.65002,78.60999,388.57001,70.71997,372.41998,70.71997z
			 M375.28003,353.60999c0,0.93005-0.04004,1.69006-0.10004,2.29993h-27.56c-1.20001,0-2.09998-0.07996-2.73999-0.16992
			c-0.07001-0.53003-0.12-1.22998-0.12-2.13V94.39001c0-0.92004,0.04999-1.64001,0.12-2.19006
			c0.54999-0.05994,1.26001-0.10999,2.17999-0.10999h25.35999c1.20001,0,2.10004,0.07996,2.75,0.17004
			c0.06,0.53003,0.11005,1.22998,0.11005,2.13V353.60999z M372.41998,70.71997H347.06
			c-15.77997,0-23.66998,7.89001-23.66998,23.67004v259.21997c0,15.78003,8.07996,23.67004,24.22998,23.67004h27.62
			c14.27002,0,21.41003-7.89001,21.41003-23.67004V94.39001C396.65002,78.60999,388.57001,70.71997,372.41998,70.71997z
			 M375.28003,353.60999c0,0.93005-0.04004,1.69006-0.10004,2.29993h-27.56c-1.20001,0-2.09998-0.07996-2.73999-0.16992
			c-0.07001-0.53003-0.12-1.22998-0.12-2.13V94.39001c0-0.92004,0.04999-1.64001,0.12-2.19006
			c0.54999-0.05994,1.26001-0.10999,2.17999-0.10999h25.35999c1.20001,0,2.10004,0.07996,2.75,0.17004
			c0.06,0.53003,0.11005,1.22998,0.11005,2.13V353.60999z M372.41998,70.71997H347.06
			c-15.77997,0-23.66998,7.89001-23.66998,23.67004v259.21997c0,15.78003,8.07996,23.67004,24.22998,23.67004h27.62
			c14.27002,0,21.41003-7.89001,21.41003-23.67004V94.39001C396.65002,78.60999,388.57001,70.71997,372.41998,70.71997z
			 M375.28003,353.60999c0,0.93005-0.04004,1.69006-0.10004,2.29993h-27.56c-1.20001,0-2.09998-0.07996-2.73999-0.16992
			c-0.07001-0.53003-0.12-1.22998-0.12-2.13V94.39001c0-0.92004,0.04999-1.64001,0.12-2.19006
			c0.54999-0.05994,1.26001-0.10999,2.17999-0.10999h25.35999c1.20001,0,2.10004,0.07996,2.75,0.17004
			c0.06,0.53003,0.11005,1.22998,0.11005,2.13V353.60999z"/>
		<path class="st0" d="M621.83002,0.32007l-32.82001,155.61987L556.19,0.32007h-98.44v447.35986h97.29999l-1.56-73.26001h71.04004
			l-1.56006,73.26001h97.30005V0.32007H621.83002z M698.90002,426.31006h-54.10004l5.63-264.86011l-40.57001,191.6001h-41.70001
			l-40.57996-191.6001l5.63995,264.86011H479.12V21.68994h59.72998L589.01001,259.5l50.14996-237.81006h59.74005V426.31006z"/>
		<path class="st0" d="M882.76001,92.08997V0.32007H705.90002v447.35986h176.85999v-91.77002h-80.02002v-91.93994h71v-91.77002h-71
			V92.08997H882.76001z M852.37,193.57007v49.02991h-71v134.68005h80.02002v49.03003h-134.12V21.68994h134.12v49.03003H781.37
			v122.8501H852.37z"/>
		<path class="st0" d="M980.53003,0.32007V70.13L959.81006,0.32007h-91.42004v447.35986h96.83997V300.43994l15.30005,48.57007
			v98.66992H1077.37V0.32007H980.53003z M1056,426.31006h-54.09998v-80.59009l-58.04004-184.27002v264.86011h-54.09998V21.68994
			h54.09998l58.04004,195.55005V21.68994H1056V426.31006z"/>
		<path class="st0" d="M1370.88,0.32007v350.46997c0,2.42993-0.21008,4.07996-0.41003,5.11987c-0.06995,0-22.17993,0-22.17993,0
			c-0.78003,0-1.38013-0.04993-1.83008-0.09985c-0.21997-0.92004-0.45996-2.5-0.45996-5.02002V0.32007h-96.84009v348.77991
			c0,85.77002,53.99011,98.57996,86.18018,98.57996h45.63989c21.95996,0,54-5.84998,72.37-36.18994
			c8.7301-14.41003,14.37-34.35999,14.37-61.82007V0.32007H1370.88z M1446.34998,349.66992
			c0,51.09009-21.78992,76.64014-65.37,76.64014h-45.63989c-43.21008,0-64.81006-25.7301-64.81006-77.21008V21.68994H1324.62
			v329.1001c0,17.66992,7.90002,26.48999,23.67004,26.48999h21.98999c14.63989,0,21.96997-8.82007,21.96997-26.48999V21.68994
			h54.09998V349.66992z"/>
		<path class="st0" d="M1063,0.32007v91.7699h51.84009v355.58997h96.83984V92.08997h51.8501V0.32007H1063z M1242.15991,70.71997
			h-51.84985v355.59009h-54.1001V70.71997H1084.37V21.68994h157.78992V70.71997z"/>
	</g>
</g>
</svg>
