<?xml version="1.0" encoding="UTF-8" standalone="no"?>
<!-- Generator: Adobe Illustrator 24.0.2, SVG Export Plug-In . SVG Version: 6.00 Build 0)  -->

<svg
   xmlns:dc="http://purl.org/dc/elements/1.1/"
   xmlns:cc="http://creativecommons.org/ns#"
   xmlns:rdf="http://www.w3.org/1999/02/22-rdf-syntax-ns#"
   xmlns:svg="http://www.w3.org/2000/svg"
   xmlns="http://www.w3.org/2000/svg"
   xmlns:sodipodi="http://sodipodi.sourceforge.net/DTD/sodipodi-0.dtd"
   xmlns:inkscape="http://www.inkscape.org/namespaces/inkscape"
   version="1.1"
   id="Ebene_1"
   x="0px"
   y="0px"
   viewBox="0 0 4431.3 3249.1"
   style="enable-background:new 0 0 4431.3 3249.1;"
   xml:space="preserve"
   sodipodi:docname="Logo-02-Light.svg"
   inkscape:version="0.92.4 (5da689c313, 2019-01-14)"><metadata
   id="metadata1078"><rdf:RDF><cc:Work
       rdf:about=""><dc:format>image/svg+xml</dc:format><dc:type
         rdf:resource="http://purl.org/dc/dcmitype/StillImage" /><dc:title></dc:title></cc:Work></rdf:RDF></metadata><defs
   id="defs1076" /><sodipodi:namedview
   pagecolor="#212121"
   bordercolor="#666666"
   borderopacity="1"
   objecttolerance="10"
   gridtolerance="10"
   guidetolerance="10"
   inkscape:pageopacity="0"
   inkscape:pageshadow="2"
   inkscape:window-width="1920"
   inkscape:window-height="1017"
   id="namedview1074"
   showgrid="false"
   inkscape:zoom="0.18318747"
   inkscape:cx="1956.1283"
   inkscape:cy="1900.6201"
   inkscape:window-x="1912"
   inkscape:window-y="-8"
   inkscape:window-maximized="1"
   inkscape:current-layer="g1071-2-1-0"
   showguides="false"
   inkscape:pagecheckerboard="false"><inkscape:grid
     type="xygrid"
     id="grid827" /></sodipodi:namedview>
<style
   type="text/css"
   id="style2">
	.st0{fill:#29A9E1;}
	.st1{fill:#701511;}
	.st2{fill:none;}
	.st3{fill:#DED6C5;}
	.st4{font-family:'DINMittelschriftStd';}
	.st5{font-size:114px;}
	.st6{letter-spacing:5;}
	.st7{fill:#DED6C5;stroke:#DED6C5;stroke-width:3;stroke-miterlimit:10;}
	.st8{fill:#1D1E1C;}
	.st9{fill:#EC6A1D;}
	.st10{fill:url(#SVGID_1_);}
	.st11{fill:#FFFFFF;}
	.st12{font-size:15px;}
	.st13{fill:none;stroke:#DED6C5;stroke-miterlimit:10;}
	.st14{fill:none;stroke:#DED6C5;stroke-width:5;stroke-miterlimit:10;}
	.st15{fill:none;stroke:#29A9E1;stroke-miterlimit:10;}
</style>








































































































<g
   transform="translate(-3874.7281,-1595.3959)"
   id="g1071-2-1-0"
   inkscape:export-xdpi="500.06201"
   inkscape:export-ydpi="500.06201"><g
     id="g5109"
     transform="matrix(10.717553,0,0,10.717553,-38208.017,-15283.894)"><g
       inkscape:export-ydpi="500.06201"
       inkscape:export-xdpi="500.06201"
       id="g1049-4-6-5"
       transform="translate(-12.2825,-6.1412)"><path
         style="fill:#c31b1b;fill-opacity:1"
         id="path1045-9-0-9"
         d="m 4160.2,1780.1 c 0.5,0.5 0.8,1.3 0.8,2.2 v 3.8 c 0,1 -0.3,1.7 -0.8,2.3 -0.5,0.5 -1.3,0.8 -2.2,0.8 h -2.6 v -9.9 h 2.6 c 1,0 1.7,0.2 2.2,0.8 z"
         class="st0"
         inkscape:connector-curvature="0" /><path
         style="fill:#c31b1b;fill-opacity:1"
         id="path1047-5-2-1"
         d="m 4219.2,1779.7 c -0.5,-0.6 -1.3,-0.8 -2.2,-0.8 -0.9,0 -1.7,0.3 -2.2,0.8 -0.5,0.6 -0.8,1.4 -0.8,2.4 v 18 c 0,1 0.3,1.8 0.8,2.4 0.5,0.6 1.3,0.8 2.2,0.8 0.9,0 1.7,-0.3 2.2,-0.8 0.5,-0.6 0.8,-1.4 0.8,-2.4 v -18 c 0,-1.1 -0.2,-1.9 -0.8,-2.4 z m 0,0 c -0.5,-0.6 -1.3,-0.8 -2.2,-0.8 -0.9,0 -1.7,0.3 -2.2,0.8 -0.5,0.6 -0.8,1.4 -0.8,2.4 v 18 c 0,1 0.3,1.8 0.8,2.4 0.5,0.6 1.3,0.8 2.2,0.8 0.9,0 1.7,-0.3 2.2,-0.8 0.5,-0.6 0.8,-1.4 0.8,-2.4 v -18 c 0,-1.1 -0.2,-1.9 -0.8,-2.4 z m 0,0 c -0.5,-0.6 -1.3,-0.8 -2.2,-0.8 -0.9,0 -1.7,0.3 -2.2,0.8 -0.5,0.6 -0.8,1.4 -0.8,2.4 v 18 c 0,1 0.3,1.8 0.8,2.4 0.5,0.6 1.3,0.8 2.2,0.8 0.9,0 1.7,-0.3 2.2,-0.8 0.5,-0.6 0.8,-1.4 0.8,-2.4 v -18 c 0,-1.1 -0.2,-1.9 -0.8,-2.4 z m 0,0 c -0.5,-0.6 -1.3,-0.8 -2.2,-0.8 -0.9,0 -1.7,0.3 -2.2,0.8 -0.5,0.6 -0.8,1.4 -0.8,2.4 v 18 c 0,1 0.3,1.8 0.8,2.4 0.5,0.6 1.3,0.8 2.2,0.8 0.9,0 1.7,-0.3 2.2,-0.8 0.5,-0.6 0.8,-1.4 0.8,-2.4 v -18 c 0,-1.1 -0.2,-1.9 -0.8,-2.4 z m 0,0 c -0.5,-0.6 -1.3,-0.8 -2.2,-0.8 -0.9,0 -1.7,0.3 -2.2,0.8 -0.5,0.6 -0.8,1.4 -0.8,2.4 v 18 c 0,1 0.3,1.8 0.8,2.4 0.5,0.6 1.3,0.8 2.2,0.8 0.9,0 1.7,-0.3 2.2,-0.8 0.5,-0.6 0.8,-1.4 0.8,-2.4 v -18 c 0,-1.1 -0.2,-1.9 -0.8,-2.4 z m 87.4,0 c -0.5,-0.6 -1.3,-0.8 -2.2,-0.8 -0.9,0 -1.7,0.3 -2.2,0.8 -0.5,0.6 -0.8,1.4 -0.8,2.4 v 18 c 0,1 0.3,1.8 0.8,2.4 0.5,0.6 1.3,0.8 2.2,0.8 0.9,0 1.7,-0.3 2.2,-0.8 0.5,-0.6 0.8,-1.4 0.8,-2.4 v -18 c 0,-1.1 -0.3,-1.9 -0.8,-2.4 z m 0,0 c -0.5,-0.6 -1.3,-0.8 -2.2,-0.8 -0.9,0 -1.7,0.3 -2.2,0.8 -0.5,0.6 -0.8,1.4 -0.8,2.4 v 18 c 0,1 0.3,1.8 0.8,2.4 0.5,0.6 1.3,0.8 2.2,0.8 0.9,0 1.7,-0.3 2.2,-0.8 0.5,-0.6 0.8,-1.4 0.8,-2.4 v -18 c 0,-1.1 -0.3,-1.9 -0.8,-2.4 z m -87.4,0 c -0.5,-0.6 -1.3,-0.8 -2.2,-0.8 -0.9,0 -1.7,0.3 -2.2,0.8 -0.5,0.6 -0.8,1.4 -0.8,2.4 v 18 c 0,1 0.3,1.8 0.8,2.4 0.5,0.6 1.3,0.8 2.2,0.8 0.9,0 1.7,-0.3 2.2,-0.8 0.5,-0.6 0.8,-1.4 0.8,-2.4 v -18 c 0,-1.1 -0.2,-1.9 -0.8,-2.4 z m -81.9,-14.4 v 51.5 h 209.9 v -51.5 z m 24.3,42.2 -3.6,-13.6 h -2.6 v 13.6 h -5 v -32.9 h 7.8 c 2.4,0 4.3,0.7 5.7,2.1 1.4,1.4 2.1,3.3 2.1,5.7 v 3.6 c 0,1.5 -0.3,2.8 -0.9,4 -0.6,1.2 -1.4,2.1 -2.5,2.7 l 4.2,14.7 h -5.2 z m 23.4,-28.2 h -9.2 v 9.2 h 7.3 v 4.7 h -7.3 v 9.6 h 9.2 v 4.7 h -14.1 v -32.9 h 14.1 z m 15.2,28.2 h -6.7 l -5.5,-32.9 h 5.1 l 3.8,25.9 3.8,-25.9 h 5 z m 24.8,-7.5 c 0,2.4 -0.7,4.3 -2.2,5.8 -1.5,1.5 -3.4,2.2 -5.8,2.2 -2.4,0 -4.3,-0.7 -5.8,-2.2 -1.5,-1.5 -2.2,-3.4 -2.2,-5.8 v -18 c 0,-2.4 0.7,-4.3 2.2,-5.8 1.5,-1.5 3.4,-2.2 5.8,-2.2 2.4,0 4.3,0.7 5.8,2.2 1.5,1.5 2.2,3.4 2.2,5.8 z m 18.9,7.5 H 4230 v -32.9 h 5 v 28.2 h 8.9 z m 19.1,-7.3 c 0,2.3 -0.7,4.1 -2.1,5.6 -1.4,1.4 -3.3,2.1 -5.6,2.1 -2.3,0 -4.1,-0.7 -5.6,-2.1 -1.4,-1.4 -2.2,-3.3 -2.2,-5.6 v -25.7 h 5 v 25.7 c 0,0.9 0.3,1.7 0.8,2.2 0.5,0.5 1.2,0.8 2,0.8 0.8,0 1.5,-0.3 2,-0.8 0.5,-0.5 0.8,-1.3 0.8,-2.2 v -25.7 h 4.9 z m 19.5,-20.9 h -5.4 v 28.2 h -5 v -28.2 h -5.5 v -4.7 h 15.9 z m 8.9,28.2 h -5 v -32.9 h 5 z m 21,-7.5 c 0,2.4 -0.7,4.3 -2.2,5.8 -1.5,1.5 -3.4,2.2 -5.8,2.2 -2.4,0 -4.3,-0.7 -5.8,-2.2 -1.5,-1.5 -2.2,-3.4 -2.2,-5.8 v -18 c 0,-2.4 0.7,-4.3 2.2,-5.8 1.5,-1.5 3.4,-2.2 5.8,-2.2 2.4,0 4.3,0.7 5.8,2.2 1.5,1.5 2.2,3.4 2.2,5.8 z m 21.7,7.5 h -5.3 l -6.6,-21.1 v 21.1 h -4.9 v -32.9 h 5.5 l 6.3,22.1 v -22.1 h 4.9 v 32.9 z m -29.7,-28.7 c -0.9,0 -1.7,0.3 -2.2,0.8 -0.5,0.6 -0.8,1.4 -0.8,2.4 v 18 c 0,1 0.3,1.8 0.8,2.4 0.5,0.6 1.3,0.8 2.2,0.8 0.9,0 1.7,-0.3 2.2,-0.8 0.5,-0.6 0.8,-1.4 0.8,-2.4 v -18 c 0,-1 -0.3,-1.8 -0.8,-2.4 -0.5,-0.5 -1.3,-0.8 -2.2,-0.8 z m -87.4,0 c -0.9,0 -1.7,0.3 -2.2,0.8 -0.5,0.6 -0.8,1.4 -0.8,2.4 v 18 c 0,1 0.3,1.8 0.8,2.4 0.5,0.6 1.3,0.8 2.2,0.8 0.9,0 1.7,-0.3 2.2,-0.8 0.5,-0.6 0.8,-1.4 0.8,-2.4 v -18 c 0,-1 -0.3,-1.8 -0.8,-2.4 -0.5,-0.5 -1.2,-0.8 -2.2,-0.8 z m 2.2,0.9 c -0.5,-0.6 -1.3,-0.8 -2.2,-0.8 -0.9,0 -1.7,0.3 -2.2,0.8 -0.5,0.6 -0.8,1.4 -0.8,2.4 v 18 c 0,1 0.3,1.8 0.8,2.4 0.5,0.6 1.3,0.8 2.2,0.8 0.9,0 1.7,-0.3 2.2,-0.8 0.5,-0.6 0.8,-1.4 0.8,-2.4 v -18 c 0,-1.1 -0.2,-1.9 -0.8,-2.4 z m 0,0 c -0.5,-0.6 -1.3,-0.8 -2.2,-0.8 -0.9,0 -1.7,0.3 -2.2,0.8 -0.5,0.6 -0.8,1.4 -0.8,2.4 v 18 c 0,1 0.3,1.8 0.8,2.4 0.5,0.6 1.3,0.8 2.2,0.8 0.9,0 1.7,-0.3 2.2,-0.8 0.5,-0.6 0.8,-1.4 0.8,-2.4 v -18 c 0,-1.1 -0.2,-1.9 -0.8,-2.4 z m 0,0 c -0.5,-0.6 -1.3,-0.8 -2.2,-0.8 -0.9,0 -1.7,0.3 -2.2,0.8 -0.5,0.6 -0.8,1.4 -0.8,2.4 v 18 c 0,1 0.3,1.8 0.8,2.4 0.5,0.6 1.3,0.8 2.2,0.8 0.9,0 1.7,-0.3 2.2,-0.8 0.5,-0.6 0.8,-1.4 0.8,-2.4 v -18 c 0,-1.1 -0.2,-1.9 -0.8,-2.4 z m 0,0 c -0.5,-0.6 -1.3,-0.8 -2.2,-0.8 -0.9,0 -1.7,0.3 -2.2,0.8 -0.5,0.6 -0.8,1.4 -0.8,2.4 v 18 c 0,1 0.3,1.8 0.8,2.4 0.5,0.6 1.3,0.8 2.2,0.8 0.9,0 1.7,-0.3 2.2,-0.8 0.5,-0.6 0.8,-1.4 0.8,-2.4 v -18 c 0,-1.1 -0.2,-1.9 -0.8,-2.4 z m 0,0 c -0.5,-0.6 -1.3,-0.8 -2.2,-0.8 -0.9,0 -1.7,0.3 -2.2,0.8 -0.5,0.6 -0.8,1.4 -0.8,2.4 v 18 c 0,1 0.3,1.8 0.8,2.4 0.5,0.6 1.3,0.8 2.2,0.8 0.9,0 1.7,-0.3 2.2,-0.8 0.5,-0.6 0.8,-1.4 0.8,-2.4 v -18 c 0,-1.1 -0.2,-1.9 -0.8,-2.4 z m 0,0 c -0.5,-0.6 -1.3,-0.8 -2.2,-0.8 -0.9,0 -1.7,0.3 -2.2,0.8 -0.5,0.6 -0.8,1.4 -0.8,2.4 v 18 c 0,1 0.3,1.8 0.8,2.4 0.5,0.6 1.3,0.8 2.2,0.8 0.9,0 1.7,-0.3 2.2,-0.8 0.5,-0.6 0.8,-1.4 0.8,-2.4 v -18 c 0,-1.1 -0.2,-1.9 -0.8,-2.4 z"
         class="st0"
         inkscape:connector-curvature="0" /></g><g
       transform="translate(-12.2825,-6.1412499)"
       style="fill:#ffffff"
       id="g1063-7-4-3"><g
         style="fill:#ffffff"
         id="g1061-9-7-5"><path
           style="fill:#ffffff"
           id="path1051-2-6-3"
           d="m 3944.7,1677.4 h 29.4 c 6.4,0 12,0.8 18.2,5.7 4.9,3.8 8.8,10.6 8.8,19.4 0,11.5 -8.8,24.4 -25.4,24.4 H 3957 v 31.7 h -12.3 z m 12.4,37.9 h 18.2 c 9.1,0 13.6,-6.7 13.6,-13.1 0,-5.5 -2.2,-8.8 -5.2,-10.8 -2.7,-1.8 -5.2,-2.3 -8.8,-2.3 h -17.8 z"
           class="st8"
           inkscape:connector-curvature="0" /><path
           style="fill:#ffffff"
           id="path1053-5-2-2"
           d="m 4093.3,1677.4 h 31.7 c 6.8,0 12.2,1.6 16.5,5.4 4.6,3.9 8.1,10 8.1,17.3 0,10.5 -5.9,19 -15.7,22.5 l 18.8,36 h -14.6 l -16.8,-34.7 h -15.7 v 34.7 h -12.3 z m 12.3,35.6 h 18.6 c 9.2,0 13.8,-6 13.8,-12.9 0,-4.2 -1.6,-7.4 -4.1,-9.2 -2.3,-1.7 -4.8,-2.5 -9,-2.5 h -19.3 z"
           class="st8"
           inkscape:connector-curvature="0" /><path
           style="fill:#ffffff"
           id="path1055-8-0-0"
           d="M 4180.3,1688.4 H 4158 v -10.9 h 56.8 v 10.9 h -22.2 v 70.2 h -12.3 z"
           class="st8"
           inkscape:connector-curvature="0" /><path
           style="fill:#ffffff"
           id="path1057-4-8-4"
           d="m 4262.3,1740.5 h -30.8 l -6.3,18.1 h -13 l 29.5,-81.2 h 10.3 l 29.5,81.2 h -13 z m -3.5,-11 -11.7,-35.5 h -0.2 l -11.7,35.5 z"
           class="st8"
           inkscape:connector-curvature="0" /><path
           style="fill:#ffffff"
           id="path1059-5-6-3"
           d="m 4296,1677.4 h 12.3 v 69.5 h 39.6 v 11.6 H 4296 Z"
           class="st8"
           inkscape:connector-curvature="0" /></g></g><g
       transform="translate(-12.2825,-6.1412499)"
       id="g1069-9-1-3"><g
         id="g1067-7-4-5"><path
           style="fill:#c31b1b;fill-opacity:1"
           id="path1065-3-9-4"
           d="m 4056.7,1657.6 c 15.3,0 24.4,12.4 27.9,37.1 0,1.6 0.3,4.6 0.5,8.9 0,23.6 -8.1,44.9 -24.2,63.7 -7.5,7.5 -15,11.3 -22.6,11.3 -11.6,0 -20.4,-8.6 -26.9,-26.1 -1.9,-5.9 -3,-12.6 -3,-20.1 0,-21 6.2,-41.1 18.8,-60.4 h 0.5 v 0.8 c -3.5,5.9 -5.6,11 -7,15.3 v 0.5 h 0.5 c 10.8,-20.6 22.6,-31 35.5,-31 z m -37.9,77.6 c 0,20.7 7,33 21.2,36.8 h 2.4 c 3,0 5.4,-1.1 6.7,-3 h -3.8 c -10.7,0 -17.5,-8.9 -20.7,-26.3 h 0.8 c 4.3,13.7 10.5,20.4 18.5,20.4 12.6,0 22.3,-12.1 29.8,-36.3 1.9,-7.8 3,-15.6 3,-23.1 v -1.3 c 0,-5.1 -0.5,-10.7 -1.9,-17.2 h -0.8 v 0.5 c 0.3,2.7 0.5,4.8 0.5,6.4 v 1.1 c 0,10.5 -1.6,17.5 -4.8,21.5 v -0.5 c 1.6,-5.6 2.4,-11 2.4,-15.9 0,-14.8 -4.3,-25 -12.9,-30.4 l -4.6,-0.5 c -12.6,0 -23.4,14 -32.2,41.9 -2.2,10.1 -3.6,18.7 -3.6,25.9 z"
           class="st0"
           inkscape:connector-curvature="0" /></g></g></g></g></svg>