<?xml version="1.0" encoding="utf-8"?>
<!-- Generator: Adobe Illustrator 27.3.1, SVG Export Plug-In . SVG Version: 6.00 Build 0)  -->
<svg version="1.1" id="Ebene_1" xmlns="http://www.w3.org/2000/svg" xmlns:xlink="http://www.w3.org/1999/xlink" x="0px" y="0px"
	 viewBox="0 0 191 45" style="enable-background:new 0 0 191 45;" xml:space="preserve">
<style type="text/css">
	.st0{fill:#F0413C;}
	.st1{fill:#FFFFFF;}
</style>
<g>
	<g>
		<g>
			<g>
				<path class="st0" d="M10,0l10,0c7.8,7.8,12.2,12.2,20,20v0H10c-3.9-3.9-6.1-6.1-10-10v0C3.9,6.1,6.1,3.9,10,0z"/>
			</g>
			<g>
				<path class="st1" d="M30,45H20C12.2,37.2,7.8,32.8,0,25v0h30c3.9,3.9,6.1,6.1,10,10v0C36.1,38.9,33.9,41.1,30,45z"/>
			</g>
		</g>
	</g>
	<g>
		<g>
			<path class="st1" d="M64.5,27c-1.6,0-3.1-0.2-4.4-0.6s-2.4-0.9-3.4-1.7c-1-0.7-1.9-1.6-2.7-2.6l3.6-4.1c1.2,1.6,2.3,2.6,3.5,3.2
				c1.2,0.5,2.4,0.8,3.7,0.8c0.6,0,1.2-0.1,1.7-0.2c0.5-0.2,0.9-0.4,1.2-0.7c0.3-0.3,0.4-0.7,0.4-1.2c0-0.4-0.1-0.7-0.3-0.9
				c-0.2-0.3-0.4-0.5-0.7-0.7c-0.3-0.2-0.7-0.4-1.1-0.6s-0.9-0.3-1.3-0.5c-0.5-0.1-0.9-0.2-1.4-0.3c-1.4-0.3-2.5-0.7-3.5-1.1
				c-1-0.4-1.8-1-2.5-1.6c-0.7-0.6-1.2-1.4-1.5-2.2c-0.3-0.8-0.5-1.8-0.5-2.8c0-1.1,0.3-2.1,0.8-3c0.5-0.9,1.2-1.7,2-2.4
				s1.8-1.2,3-1.5c1.1-0.4,2.3-0.5,3.5-0.5c1.6,0,3,0.2,4.1,0.5c1.2,0.3,2.1,0.8,3,1.5s1.5,1.4,2.1,2.3L70,9.3
				c-0.5-0.6-1-1.1-1.6-1.5c-0.6-0.4-1.2-0.7-1.8-0.9s-1.3-0.3-2-0.3c-0.7,0-1.3,0.1-1.8,0.3s-0.9,0.4-1.2,0.7
				c-0.3,0.3-0.4,0.7-0.4,1.1c0,0.4,0.1,0.7,0.3,1c0.2,0.3,0.5,0.5,0.9,0.8c0.4,0.2,0.9,0.4,1.4,0.6c0.5,0.2,1.1,0.3,1.6,0.4
				c1.3,0.3,2.4,0.6,3.5,1c1,0.4,1.9,0.9,2.7,1.5c0.8,0.6,1.3,1.3,1.8,2.2C73.8,17,74,17.9,74,19c0,1.7-0.4,3.1-1.2,4.3
				c-0.8,1.2-2,2.1-3.4,2.7C68,26.7,66.3,27,64.5,27z"/>
			<path class="st1" d="M83.8,26.6V7.4h-7.3V2.1h20.7v5.2h-7.5v19.2H83.8z"/>
			<path class="st1" d="M101.5,26.6V2.1h11c1.6,0,3,0.3,4.3,1s2.3,1.6,3,2.8c0.7,1.2,1.1,2.5,1.1,4c0,1.5-0.4,2.9-1.1,4.1
				c-0.7,1.2-1.7,2.2-3,2.9s-2.7,1-4.3,1h-5.4v8.6H101.5z M107.1,13.5h4.8c0.6,0,1.1-0.1,1.6-0.4s0.8-0.6,1-1.1s0.4-1,0.4-1.7
				s-0.1-1.2-0.4-1.7c-0.3-0.5-0.7-0.8-1.2-1.1c-0.5-0.3-1.2-0.4-1.9-0.4h-4.3V13.5z M115,26.6l-6.2-11.1l6.1-0.9l6.9,11.9H115z"/>
			<path class="st1" d="M122.9,26.6l9.7-24.5h5l9.6,24.5h-6l-4.6-12.4c-0.2-0.5-0.4-1-0.6-1.6c-0.2-0.6-0.4-1.1-0.6-1.7
				c-0.2-0.6-0.4-1.2-0.5-1.8c-0.2-0.6-0.3-1.1-0.4-1.6l1,0c-0.1,0.6-0.3,1.2-0.5,1.7c-0.2,0.6-0.3,1.1-0.5,1.7s-0.4,1.1-0.6,1.6
				c-0.2,0.5-0.4,1.1-0.6,1.7l-4.6,12.4H122.9z M127.5,21.9l1.9-4.5h11.3l1.8,4.5H127.5z"/>
			<path class="st1" d="M153.9,26.6V7.4h-7.3V2.1h20.7v5.2h-7.5v19.2H153.9z"/>
			<path class="st1" d="M166.6,26.6l9.7-24.5h5l9.6,24.5h-6l-4.6-12.4c-0.2-0.5-0.4-1-0.6-1.6c-0.2-0.6-0.4-1.1-0.6-1.7
				c-0.2-0.6-0.4-1.2-0.5-1.8c-0.2-0.6-0.3-1.1-0.4-1.6l1,0c-0.1,0.6-0.3,1.2-0.5,1.7c-0.2,0.6-0.3,1.1-0.5,1.7s-0.4,1.1-0.6,1.6
				c-0.2,0.5-0.4,1.1-0.6,1.7l-4.6,12.4H166.6z M171.2,21.9l1.9-4.5h11.3l1.8,4.5H171.2z"/>
		</g>
		<g>
			<path class="st0" d="M59.3,43.4c-0.6,0-1.2-0.1-1.8-0.2c-0.5-0.2-1-0.4-1.4-0.7c-0.4-0.3-0.8-0.7-1.1-1.1l1.4-1.6
				c0.5,0.7,1,1.1,1.5,1.4s1,0.4,1.6,0.4c0.3,0,0.6,0,0.8-0.1s0.4-0.2,0.6-0.4c0.1-0.2,0.2-0.3,0.2-0.6c0-0.2,0-0.3-0.1-0.4
				c-0.1-0.1-0.2-0.3-0.3-0.4c-0.1-0.1-0.3-0.2-0.5-0.3c-0.2-0.1-0.4-0.2-0.6-0.2c-0.2-0.1-0.5-0.1-0.7-0.2c-0.6-0.1-1-0.3-1.5-0.5
				c-0.4-0.2-0.8-0.4-1-0.7c-0.3-0.3-0.5-0.6-0.6-0.9c-0.1-0.3-0.2-0.7-0.2-1.2c0-0.5,0.1-0.9,0.3-1.3s0.5-0.7,0.8-1
				c0.4-0.3,0.8-0.5,1.2-0.6c0.5-0.1,1-0.2,1.5-0.2c0.6,0,1.2,0.1,1.7,0.2c0.5,0.1,0.9,0.4,1.3,0.6c0.4,0.3,0.7,0.6,0.9,1l-1.4,1.4
				c-0.2-0.3-0.4-0.5-0.7-0.7c-0.2-0.2-0.5-0.3-0.8-0.4c-0.3-0.1-0.6-0.1-0.9-0.1c-0.3,0-0.6,0-0.9,0.1c-0.2,0.1-0.4,0.2-0.6,0.4
				c-0.1,0.2-0.2,0.4-0.2,0.6c0,0.2,0,0.3,0.1,0.5c0.1,0.1,0.2,0.3,0.4,0.4c0.2,0.1,0.4,0.2,0.6,0.3c0.2,0.1,0.5,0.2,0.8,0.2
				c0.5,0.1,1,0.3,1.5,0.4c0.4,0.2,0.8,0.4,1.1,0.7c0.3,0.3,0.6,0.6,0.7,0.9c0.2,0.3,0.3,0.7,0.3,1.2c0,0.7-0.2,1.3-0.5,1.8
				c-0.3,0.5-0.8,0.9-1.4,1.1C60.8,43.3,60.1,43.4,59.3,43.4z"/>
			<path class="st0" d="M72.2,43.4c-0.8,0-1.5-0.1-2.1-0.4c-0.7-0.3-1.2-0.6-1.7-1.1c-0.5-0.5-0.9-1.1-1.1-1.7
				c-0.3-0.7-0.4-1.4-0.4-2.2c0-0.8,0.1-1.5,0.4-2.2c0.3-0.7,0.6-1.2,1.1-1.7c0.5-0.5,1.1-0.9,1.7-1.1c0.7-0.3,1.4-0.4,2.1-0.4
				c0.8,0,1.5,0.1,2.1,0.4c0.6,0.3,1.2,0.7,1.7,1.1c0.5,0.5,0.9,1.1,1.1,1.7s0.4,1.4,0.4,2.2s-0.1,1.5-0.4,2.2s-0.6,1.2-1.1,1.7
				c-0.5,0.5-1,0.9-1.7,1.1C73.7,43.3,73,43.4,72.2,43.4z M72.2,41.3c0.4,0,0.8-0.1,1.2-0.2c0.4-0.2,0.7-0.4,1-0.7
				c0.3-0.3,0.5-0.7,0.6-1c0.2-0.4,0.2-0.8,0.2-1.3c0-0.5-0.1-0.9-0.2-1.3c-0.2-0.4-0.4-0.7-0.6-1c-0.3-0.3-0.6-0.5-1-0.7
				s-0.8-0.2-1.2-0.2c-0.4,0-0.8,0.1-1.2,0.2s-0.7,0.4-1,0.7c-0.3,0.3-0.5,0.6-0.6,1c-0.1,0.4-0.2,0.8-0.2,1.3
				c0,0.5,0.1,0.9,0.2,1.3c0.1,0.4,0.4,0.8,0.6,1c0.3,0.3,0.6,0.5,1,0.7C71.4,41.2,71.8,41.3,72.2,41.3z"/>
			<path class="st0" d="M86.2,43.4c-0.8,0-1.6-0.2-2.3-0.5c-0.7-0.4-1.2-0.8-1.6-1.5c-0.4-0.6-0.6-1.3-0.6-2.1v-6.5H84v6.3
				c0,0.4,0.1,0.8,0.3,1.1c0.2,0.3,0.4,0.6,0.8,0.8c0.3,0.2,0.7,0.3,1.1,0.3c0.4,0,0.8-0.1,1.1-0.3s0.6-0.5,0.8-0.8
				c0.2-0.3,0.3-0.7,0.3-1.1v-6.3h2.2v6.5c0,0.8-0.2,1.5-0.6,2.1c-0.4,0.6-0.9,1.1-1.6,1.5C87.8,43.2,87,43.4,86.2,43.4z"/>
			<path class="st0" d="M95.5,43.3V32.8h4.6c0.7,0,1.2,0.1,1.8,0.4c0.5,0.3,0.9,0.7,1.3,1.2c0.3,0.5,0.5,1.1,0.5,1.7
				c0,0.6-0.2,1.2-0.5,1.7c-0.3,0.5-0.7,0.9-1.3,1.2c-0.5,0.3-1.1,0.4-1.8,0.4h-2.5v3.8H95.5z M97.6,37.7h2.4c0.3,0,0.5-0.1,0.7-0.2
				c0.2-0.1,0.4-0.3,0.5-0.5c0.1-0.2,0.2-0.5,0.2-0.8c0-0.3-0.1-0.6-0.2-0.8c-0.1-0.2-0.3-0.4-0.6-0.5s-0.5-0.2-0.9-0.2h-2.1V37.7z
				 M101.4,43.3l-2.7-4.7l2.3-0.4l3,5.1L101.4,43.3z"/>
			<path class="st0" d="M112.7,43.4c-0.8,0-1.5-0.1-2.1-0.4c-0.6-0.3-1.2-0.6-1.7-1.1c-0.5-0.5-0.8-1.1-1.1-1.7
				c-0.3-0.7-0.4-1.4-0.4-2.2c0-0.8,0.1-1.5,0.4-2.1c0.3-0.7,0.6-1.2,1.1-1.7c0.5-0.5,1.1-0.9,1.7-1.1c0.7-0.3,1.4-0.4,2.1-0.4
				c0.5,0,1,0.1,1.5,0.2s0.9,0.3,1.3,0.6s0.8,0.6,1,0.9l-1.4,1.6c-0.2-0.2-0.5-0.4-0.7-0.6c-0.3-0.2-0.5-0.3-0.8-0.4
				c-0.3-0.1-0.6-0.1-0.9-0.1c-0.4,0-0.8,0.1-1.2,0.2c-0.4,0.2-0.7,0.4-1,0.7s-0.5,0.6-0.7,1c-0.2,0.4-0.2,0.9-0.2,1.3
				c0,0.5,0.1,1,0.2,1.4c0.2,0.4,0.4,0.8,0.7,1s0.6,0.5,1,0.7c0.4,0.2,0.9,0.2,1.3,0.2c0.3,0,0.6,0,0.9-0.1s0.6-0.2,0.8-0.4
				s0.5-0.3,0.7-0.6l1.1,1.8c-0.2,0.3-0.6,0.5-1,0.7c-0.4,0.2-0.9,0.4-1.4,0.5C113.7,43.4,113.2,43.4,112.7,43.4z"/>
			<path class="st0" d="M120.7,43.3V32.8h7.1v2h-4.9v6.5h5v2H120.7z M121.7,38.9V37h5.3v1.9H121.7z"/>
		</g>
	</g>
</g>
</svg>
