<svg xmlns="http://www.w3.org/2000/svg" version="1.1" xmlns:xlink="http://www.w3.org/1999/xlink" xmlns:svgjs="http://svgjs.dev/svgjs" viewBox="0 0 800 800"><defs><linearGradient x1="50%" y1="0%" x2="50%" y2="100%" id="ffflurry-grad" gradientTransform="rotate(270)"><stop stop-color="transparent" stop-opacity="1" offset="0%"></stop><stop stop-color="#9d2828" stop-opacity="1" offset="45%"></stop><stop stop-color="#ce3d3d" stop-opacity="1" offset="100%"></stop></linearGradient></defs><rect width="100%" height="100%" fill="transparent"></rect><g fill="url(#ffflurry-grad)"><rect width="137" height="3" x="372.5" y="336.5" rx="1.5" transform="rotate(141, 441, 338)" opacity="0.35"></rect><rect width="216" height="3" x="247" y="397.5" rx="1.5" transform="rotate(141, 355, 399)" opacity="0.63"></rect><rect width="621" height="3" x="117.5" y="144.5" rx="1.5" transform="rotate(141, 428, 146)" opacity="0.77"></rect><rect width="83" height="3" x="505.5" y="384.5" rx="1.5" transform="rotate(141, 547, 386)" opacity="0.35"></rect><rect width="450" height="3" x="543" y="96.5" rx="1.5" transform="rotate(141, 768, 98)" opacity="0.90"></rect><rect width="686" height="3" x="-13" y="142.5" rx="1.5" transform="rotate(141, 330, 144)" opacity="0.30"></rect><rect width="587" height="3" x="301.5" y="586.5" rx="1.5" transform="rotate(141, 595, 588)" opacity="0.46"></rect><rect width="624" height="3" x="111" y="494.5" rx="1.5" transform="rotate(141, 423, 496)" opacity="0.96"></rect><rect width="383" height="3" x="170.5" y="232.5" rx="1.5" transform="rotate(141, 362, 234)" opacity="0.76"></rect><rect width="454" height="3" x="-154" y="262.5" rx="1.5" transform="rotate(141, 73, 264)" opacity="0.27"></rect><rect width="550" height="3" x="325" y="729.5" rx="1.5" transform="rotate(141, 600, 731)" opacity="0.64"></rect><rect width="512" height="3" x="434" y="167.5" rx="1.5" transform="rotate(141, 690, 169)" opacity="0.46"></rect><rect width="652" height="3" x="-220" y="444.5" rx="1.5" transform="rotate(141, 106, 446)" opacity="0.21"></rect><rect width="530" height="3" x="-87" y="631.5" rx="1.5" transform="rotate(141, 178, 633)" opacity="0.44"></rect><rect width="503" height="3" x="-216.5" y="481.5" rx="1.5" transform="rotate(141, 35, 483)" opacity="0.72"></rect><rect width="193" height="3" x="179.5" y="294.5" rx="1.5" transform="rotate(141, 276, 296)" opacity="0.28"></rect><rect width="365" height="3" x="130.5" y="593.5" rx="1.5" transform="rotate(141, 313, 595)" opacity="0.59"></rect><rect width="146" height="3" x="569" y="65.5" rx="1.5" transform="rotate(141, 642, 67)" opacity="0.61"></rect><rect width="161" height="3" x="313.5" y="630.5" rx="1.5" transform="rotate(141, 394, 632)" opacity="0.51"></rect><rect width="420" height="3" x="60" y="51.5" rx="1.5" transform="rotate(141, 270, 53)" opacity="0.23"></rect><rect width="372" height="3" x="388" y="35.5" rx="1.5" transform="rotate(141, 574, 37)" opacity="0.98"></rect><rect width="534" height="3" x="324" y="477.5" rx="1.5" transform="rotate(141, 591, 479)" opacity="0.40"></rect><rect width="216" height="3" x="629" y="24.5" rx="1.5" transform="rotate(141, 737, 26)" opacity="0.13"></rect><rect width="275" height="3" x="503.5" y="383.5" rx="1.5" transform="rotate(141, 641, 385)" opacity="0.49"></rect><rect width="319" height="3" x="166.5" y="757.5" rx="1.5" transform="rotate(141, 326, 759)" opacity="0.51"></rect><rect width="428" height="3" x="484" y="255.5" rx="1.5" transform="rotate(141, 698, 257)" opacity="0.77"></rect><rect width="435" height="3" x="-99.5" y="27.5" rx="1.5" transform="rotate(141, 118, 29)" opacity="0.44"></rect><rect width="294" height="3" x="219" y="44.5" rx="1.5" transform="rotate(141, 366, 46)" opacity="0.71"></rect><rect width="154" height="3" x="688" y="188.5" rx="1.5" transform="rotate(141, 765, 190)" opacity="0.58"></rect><rect width="58" height="3" x="51" y="178.5" rx="1.5" transform="rotate(141, 80, 180)" opacity="0.75"></rect><rect width="550" height="3" x="254" y="116.5" rx="1.5" transform="rotate(141, 529, 118)" opacity="0.14"></rect><rect width="321" height="3" x="9.5" y="356.5" rx="1.5" transform="rotate(141, 170, 358)" opacity="0.88"></rect><rect width="613" height="3" x="428.5" y="434.5" rx="1.5" transform="rotate(141, 735, 436)" opacity="0.48"></rect><rect width="222" height="3" x="350" y="46.5" rx="1.5" transform="rotate(141, 461, 48)" opacity="0.52"></rect><rect width="493" height="3" x="-202.5" y="348.5" rx="1.5" transform="rotate(141, 44, 350)" opacity="0.54"></rect><rect width="92" height="3" x="460" y="313.5" rx="1.5" transform="rotate(141, 506, 315)" opacity="0.88"></rect><rect width="108" height="3" x="183" y="184.5" rx="1.5" transform="rotate(141, 237, 186)" opacity="0.96"></rect><rect width="245" height="3" x="189.5" y="674.5" rx="1.5" transform="rotate(141, 312, 676)" opacity="0.32"></rect><rect width="603" height="3" x="247.5" y="242.5" rx="1.5" transform="rotate(141, 549, 244)" opacity="0.83"></rect><rect width="349" height="3" x="431.5" y="173.5" rx="1.5" transform="rotate(141, 606, 175)" opacity="0.31"></rect><rect width="691" height="3" x="-131.5" y="449.5" rx="1.5" transform="rotate(141, 214, 451)" opacity="0.88"></rect><rect width="397" height="3" x="130.5" y="336.5" rx="1.5" transform="rotate(141, 329, 338)" opacity="0.88"></rect><rect width="277" height="3" x="323.5" y="229.5" rx="1.5" transform="rotate(141, 462, 231)" opacity="0.21"></rect><rect width="491" height="3" x="72.5" y="487.5" rx="1.5" transform="rotate(141, 318, 489)" opacity="0.90"></rect><rect width="230" height="3" x="-46" y="588.5" rx="1.5" transform="rotate(141, 69, 590)" opacity="0.54"></rect><rect width="572" height="3" x="224" y="538.5" rx="1.5" transform="rotate(141, 510, 540)" opacity="0.65"></rect><rect width="587" height="3" x="-74.5" y="739.5" rx="1.5" transform="rotate(141, 219, 741)" opacity="0.26"></rect><rect width="371" height="3" x="440.5" y="287.5" rx="1.5" transform="rotate(141, 626, 289)" opacity="0.42"></rect><rect width="332" height="3" x="571" y="547.5" rx="1.5" transform="rotate(141, 737, 549)" opacity="0.42"></rect><rect width="266" height="3" x="612" y="343.5" rx="1.5" transform="rotate(141, 745, 345)" opacity="0.47"></rect><rect width="169" height="3" x="139.5" y="546.5" rx="1.5" transform="rotate(141, 224, 548)" opacity="0.30"></rect><rect width="288" height="3" x="45" y="100.5" rx="1.5" transform="rotate(141, 189, 102)" opacity="0.37"></rect><rect width="236" height="3" x="292" y="698.5" rx="1.5" transform="rotate(141, 410, 700)" opacity="0.43"></rect><rect width="620" height="3" x="425" y="730.5" rx="1.5" transform="rotate(141, 735, 732)" opacity="0.45"></rect><rect width="469" height="3" x="214.5" y="416.5" rx="1.5" transform="rotate(141, 449, 418)" opacity="0.74"></rect><rect width="128" height="3" x="11" y="730.5" rx="1.5" transform="rotate(141, 75, 732)" opacity="0.83"></rect><rect width="524" height="3" x="-70" y="262.5" rx="1.5" transform="rotate(141, 192, 264)" opacity="0.32"></rect><rect width="169" height="3" x="419.5" y="655.5" rx="1.5" transform="rotate(141, 504, 657)" opacity="0.96"></rect><rect width="556" height="3" x="157" y="583.5" rx="1.5" transform="rotate(141, 435, 585)" opacity="0.94"></rect><rect width="357" height="3" x="235.5" y="765.5" rx="1.5" transform="rotate(141, 414, 767)" opacity="0.87"></rect><rect width="116" height="3" x="641" y="90.5" rx="1.5" transform="rotate(141, 699, 92)" opacity="0.82"></rect><rect width="186" height="3" x="677" y="270.5" rx="1.5" transform="rotate(141, 770, 272)" opacity="0.47"></rect><rect width="247" height="3" x="380.5" y="753.5" rx="1.5" transform="rotate(141, 504, 755)" opacity="0.23"></rect><rect width="133" height="3" x="-12.5" y="84.5" rx="1.5" transform="rotate(141, 54, 86)" opacity="0.17"></rect><rect width="306" height="3" x="528" y="636.5" rx="1.5" transform="rotate(141, 681, 638)" opacity="0.89"></rect></g></svg>